<svg fill="none" xmlns="http://www.w3.org/2000/svg" width="16" height="16" viewBox="0 0 16 16">
    <path fill="#000" d="M21.85 55.53l-4.07 4.345V69.5H7V31h10.78v16.005L32.685 31h11.99l-15.73 17.05L45.5 69.5H32.85l-11-13.97zM76.463 31c3.484 0 6.509.587 9.075 1.76 2.567 1.137 4.547 2.787 5.94 4.95 1.394 2.127 2.09 4.638 2.09 7.535 0 2.897-.696 5.408-2.09 7.535-1.393 2.127-3.373 3.777-5.94 4.95-2.566 1.137-5.591 1.705-9.075 1.705h-6.71V69.5h-10.89V31h17.6zm-.66 19.855c2.237 0 3.924-.477 5.06-1.43 1.137-.99 1.705-2.383 1.705-4.18 0-1.797-.568-3.19-1.705-4.18-1.136-.99-2.823-1.485-5.06-1.485h-6.05v11.275h6.05z" />
</svg>
